# Blender v2.79 (sub 0) OBJ File: 'untitled.blend'
# www.blender.org
mtllib 2cubes.mtl
o FirstCube_Cube.002
v 4.696658 2.439078 -1.879003
v 2.173829 0.124187 -0.100911
v 1.922511 -2.045002 -3.281550
v 4.445340 0.269891 -5.059641
v 1.788534 4.634732 -3.146647
v 1.537218 2.465545 -6.327288
v -0.985610 0.150654 -4.549196
v -0.734293 2.319839 -1.368558
vt 0.344539 0.523068
vt 0.688452 0.503633
vt 0.688452 0.957955
vt 0.344539 0.977389
vt 0.000209 0.523067
vt 0.000209 0.977389
vt 0.344121 0.957954
vt 0.344121 0.503633
vt 0.000209 0.503216
vt 0.000209 0.073205
vt 0.397614 0.000209
vt 0.397614 0.430220
vt 0.688869 0.957955
vt 0.987217 0.980357
vt 0.987217 0.526036
vt 0.688869 0.503633
vt 0.795437 0.430220
vt 0.795437 0.000209
vt 0.398032 0.073204
vt 0.398031 0.503215
vt 0.298557 0.545470
vt 0.298557 0.999791
vn 0.7538 -0.5691 0.3286
vn -0.7538 0.5691 -0.3286
vn 0.0651 0.5622 0.8244
vn -0.6539 -0.6000 0.4609
vn -0.0651 -0.5622 -0.8244
vn 0.6539 0.6000 -0.4609
usemtl Material.001
s 1
f 1/1/1 2/2/1 3/3/1 4/4/1
f 5/5/2 6/6/2 7/7/2 8/8/2
f 1/9/3 5/10/3 8/11/3 2/12/3
f 2/13/4 8/14/4 7/15/4 3/16/4
f 3/17/5 7/18/5 6/19/5 4/20/5
f 5/5/6 1/21/6 4/22/6 6/6/6
o SecondCube_Cube.001
v -2.973231 0.461127 1.943972
v -2.973231 0.461126 3.943972
v -4.973231 0.461126 3.943972
v -4.973231 0.461127 1.943972
v -2.973231 2.461127 1.943973
v -4.973231 2.461127 1.943972
v -4.973232 2.461126 3.943973
v -2.973233 2.461126 3.943974
vn 0.0000 -1.0000 -0.0000
vn -0.0000 1.0000 0.0000
vn 1.0000 0.0000 0.0000
vn -0.0000 -0.0000 1.0000
vn -1.0000 -0.0000 -0.0000
vn 0.0000 0.0000 -1.0000
usemtl Material.001
s 1
f 9//7 10//7 11//7 12//7
f 13//8 14//8 15//8 16//8
f 9//9 13//9 16//9 10//9
f 10//10 16//10 15//10 11//10
f 11//11 15//11 14//11 12//11
f 13//12 9//12 12//12 14//12
